<?xml version="1.0" encoding="UTF-8"?>
<svg xmlns="http://www.w3.org/2000/svg" viewBox="0 0 64 64" fill="none">
  <rect width="64" height="64" rx="14" fill="#141414"/>
  <svg x="8" y="8" width="48" height="48" viewBox="0 0 24 24" preserveAspectRatio="xMidYMid meet">
    <g fill="none" stroke="#c5cad1" stroke-linecap="round" stroke-linejoin="round" stroke-width="2"><path d="m15 9l-6 6m1-3l2 2m0-4l2 2m-6 9a5 5 0 0 0-5-5"/><path d="M16 3C8.82 3 3 8.82 3 16a5 5 0 0 0 5 5c7.18 0 13-5.82 13-13a5 5 0 0 0-5-5"/><path d="M16 3a5 5 0 0 0 5 5"/></g>
  </svg>
</svg>
