<?xml version="1.0" encoding="UTF-8"?>
<svg xmlns="http://www.w3.org/2000/svg" viewBox="0 0 128 128" width="128" height="128">
  <rect width="128" height="128" rx="28" fill="#1a0d04"/>
  <svg x="0" y="0" width="128" height="128" viewBox="0 0 180 180" preserveAspectRatio="xMidYMid meet">
    <mask id="bottts-hotroute-1a0d__viewboxMask"><rect width="180" height="180" rx="0" ry="0" x="0" y="0" fill="#fff" /></mask><g mask="url(#bottts-hotroute-1a0d__viewboxMask)"><g transform="translate(0 66)"><mask id="bottts-hotroute-1a0d__sidesSquare-a" style="mask-type:luminance" maskUnits="userSpaceOnUse" x="14" y="16" width="152" height="44"><g fill="#fff"><rect x="14" y="16" width="36" height="44" rx="9"/><rect x="130" y="16" width="36" height="44" rx="9"/></g></mask><g mask="url(#bottts-hotroute-1a0d__sidesSquare-a)"><path d="M0 0h180v76H0V0Z" fill="#039be5"/><path d="M0 0h180v76H0V0Z" fill="#fff" fill-opacity=".3"/><path fill="#000" fill-opacity=".1" d="M0 38h180v38H0z"/></g></g><g transform="translate(41)"><mask id="bottts-hotroute-1a0d__topAntennaCrooked-a" style="mask-type:luminance" maskUnits="userSpaceOnUse" x="38" y="12" width="24" height="40"><g fill="#fff"><path d="M55.54 34.39 51 45h-3.74l4.92-10.44-6.05-10.43 3.22-11.84 2.9.8-2.9 10.62 6.2 10.68Z"/><path d="M38 39h24v13H38z"/></g></mask><g mask="url(#bottts-hotroute-1a0d__topAntennaCrooked-a)"><path d="M0 0h100v52H0V0Z" fill="#039be5"/><path d="M0 6h100v52H0V6Z" fill="#fff" fill-opacity=".3"/><path fill="#fff" fill-opacity=".2" d="M38 39h24v13H38z"/></g><circle cx="50" cy="8" r="8" fill="#FFE65C"/><circle cx="53" cy="5" r="3" fill="#fff"/></g><g transform="translate(25 44)"><mask id="bottts-hotroute-1a0d__faceRound02-a" style="mask-type:luminance" maskUnits="userSpaceOnUse" x="0" y="0" width="130" height="120"><path fill-rule="evenodd" clip-rule="evenodd" d="M0 31v-1c.18-.48.4-1.5 1-3 .83-3.06 2.78-6.56 6-10C16.7 6.6 35.17 0 65 0s48.3 6.6 58 17c3.22 3.44 5.17 6.94 6 10 .6 1.5.82 2.52 1 3v40c0-.1-.03.5 0 1a53.93 53.93 0 0 1-1 6c-1.19 6-3.4 11.91-7 17-9.72 16.34-27.74 26-57 26s-47.28-9.66-57-26C4.4 88.91 2.2 83 1 77a53.95 53.95 0 0 1-1-6c.03-.45 0-1.32 0-1V31Z" fill="#fff"/></mask><g mask="url(#bottts-hotroute-1a0d__faceRound02-a)"><path d="M-4-2h138v124H-4V-2Z" fill="#039be5"/><g transform="translate(-1 -1)"></g></g></g><g transform="translate(52 124)"><rect x="4" y="4" width="68" height="24" rx="5" fill="#000" fill-opacity=".2"/><rect x="8" y="8" width="60" height="16" rx="2" fill="#000" fill-opacity=".8"/><path d="M9 17h11l2-4 3 7 4-8 2 9 3-11 3 10 3-3h15l3-4 2 7 3-3h4" stroke="#4EFAC9" stroke-width="2" stroke-linecap="round" stroke-linejoin="round"/></g><g transform="translate(38 76)"><circle cx="28" cy="24" r="18" fill="#000" fill-opacity=".2"/><circle cx="74" cy="24" r="18" fill="#000" fill-opacity=".2"/><circle cx="28" cy="24" r="15" fill="#F1EEDA"/><circle cx="74" cy="24" r="15" fill="#F1EEDA"/><rect x="26" y="15" width="10" height="10" rx="2" fill="#000" fill-opacity=".8"/><rect x="74" y="15" width="10" height="10" rx="2" fill="#000" fill-opacity=".8"/></g></g>
  </svg>
</svg>
