<?xml version="1.0" encoding="UTF-8"?>
<svg xmlns="http://www.w3.org/2000/svg" viewBox="0 0 128 128" width="128" height="128">
  <rect width="128" height="128" rx="28" fill="#0a0a0a"/>
  <svg x="0" y="0" width="128" height="128" viewBox="0 0 180 180" preserveAspectRatio="xMidYMid meet">
    <mask id="bottts-deeproute-0a0a__viewboxMask"><rect width="180" height="180" rx="0" ry="0" x="0" y="0" fill="#fff" /></mask><g mask="url(#bottts-deeproute-0a0a__viewboxMask)"><g transform="translate(0 66)"><path d="M38 12c-2.95 11.7-19.9 6.67-23.37 18-3.46 11.35 8.03 20 17.53 20" stroke="#2A3544" stroke-width="6" opacity=".9"/><path d="M150 55c8.4 3.49 20.1-7.6 16-16.5-4.1-8.9-16-6.7-16-19.3" stroke="#2A3544" stroke-width="4" opacity=".9"/><mask id="bottts-deeproute-0a0a__sidesCables01-a" style="mask-type:luminance" maskUnits="userSpaceOnUse" x="21" y="6" width="138" height="58"><g fill="#fff"><rect x="21" y="35" width="16" height="22" rx="2"/><rect x="136" y="42" width="23" height="22" rx="2"/><rect x="136" y="6" width="23" height="18" rx="2"/></g></mask><g mask="url(#bottts-deeproute-0a0a__sidesCables01-a)"><path d="M0 0h180v76H0V0Z" fill="#1e88e5"/><path d="M0 0h180v76H0V0Z" fill="#fff" fill-opacity=".3"/></g></g><g transform="translate(41)"><mask id="bottts-deeproute-0a0a__topPyramid-a" style="mask-type:luminance" maskUnits="userSpaceOnUse" x="18" y="8" width="64" height="44"><path fill-rule="evenodd" clip-rule="evenodd" d="m50 8 32 44H18L50 8Z" fill="#fff"/></mask><g mask="url(#bottts-deeproute-0a0a__topPyramid-a)"><path d="M0 0h100v52H0V0Z" fill="#1e88e5"/><path d="M0 0h100v52H0V0Z" fill="#fff" fill-opacity=".3"/><path fill="#fff" fill-opacity=".8" d="M50 4h30v48H50z"/></g></g><g transform="translate(25 44)"><mask id="bottts-deeproute-0a0a__faceSquare04-a" style="mask-type:luminance" maskUnits="userSpaceOnUse" x="0" y="0" width="130" height="120"><path fill-rule="evenodd" clip-rule="evenodd" d="M0 102V68.85a40 40 0 0 1 2.28-13.31L19.76 12A18 18 0 0 1 36.74 0h56.52a18 18 0 0 1 16.98 12l17.48 43.54A40 40 0 0 1 130 68.85V102a18 18 0 0 1-18 18H18a18 18 0 0 1-18-18Z" fill="#fff"/></mask><g mask="url(#bottts-deeproute-0a0a__faceSquare04-a)"><path d="M-2-2h134v124H-2V-2Z" fill="#1e88e5"/><g transform="translate(-1 -1)"><path d="M69.1 77c-.08.01-.09.02-.1.11.09-.01.1-.02.1-.1ZM81.25 107.1l.13-.1c1.9 0-1.25.19-.13.1ZM86 85.11c.09-.01.1-.02.1-.1-.08 0-.09.01-.1.1ZM15 92c.01.09.02.1.1.11 0-.09-.01-.1-.1-.1Z" fill="#000" fill-opacity=".4"/></g></g></g><g transform="translate(52 124)"><g fill="#000" fill-opacity=".6"><rect x="28" y="10" width="6" height="14" rx="2"/><rect x="14" y="10" width="6" height="14" rx="2"/><rect x="42" y="10" width="6" height="14" rx="2"/><rect x="56" y="10" width="6" height="14" rx="2"/></g></g><g transform="translate(38 76)"><rect x="8" y="10" width="88" height="36" rx="4" fill="#000" fill-opacity=".8"/><rect x="28" y="21" width="10" height="17" rx="2" fill="#5EF2B8"/><rect x="66" y="21" width="10" height="17" rx="2" fill="#5EF2B8"/><path fill-rule="evenodd" clip-rule="evenodd" d="M83 10h5L76 46h-5l12-36Z" fill="#fff" fill-opacity=".4"/></g></g>
  </svg>
</svg>
