<?xml version="1.0" encoding="UTF-8"?>
<svg xmlns="http://www.w3.org/2000/svg" viewBox="0 0 64 64" fill="none">
  <rect width="64" height="64" rx="14" fill="#1c1c1c"/>
  <!-- shell -->
  <path fill="#2a2a2a" d="M12 36c0-13.5 10.5-24 24-24 14.5 0 22 10 22 20.5 0 5.5-3.5 9-9 9H34.5l-5.5 9.5h-4.5l3.8-9.5H18c-3.5 0-6-1.5-6-5z"/>
  <!-- center stripe -->
  <path fill="#efefef" d="M33.2 12.2c1.1-.15 2.2-.2 3.3-.2.4 0 .8 0 1.2.02V41.5h-4.5V12.2z" opacity="0.92"/>
  <!-- facemask -->
  <g stroke="#8a8a8a" stroke-width="2.2" stroke-linecap="round" fill="none">
    <path d="M34 26.5h18.5"/>
    <path d="M33.5 31h19.5"/>
    <path d="M33 35.5h17"/>
    <path d="M52.5 26.5v9"/>
    <path d="M47 26.5v12.5"/>
    <path d="M41.5 26.5v14"/>
  </g>
  <!-- ear / buckle -->
  <circle cx="28" cy="34" r="2.6" fill="#1c1c1c" stroke="#8a8a8a" stroke-width="1.4"/>
</svg>
