<?xml version="1.0" encoding="UTF-8"?>
<svg xmlns="http://www.w3.org/2000/svg" viewBox="0 0 128 128" width="128" height="128">
  <rect width="128" height="128" rx="28" fill="#1a0d04"/>
  <svg x="0" y="0" width="128" height="128" viewBox="0 0 980 980" preserveAspectRatio="xMidYMid meet">
    <mask id="lorelei-hotroute-1a0d__viewboxMask"><rect width="980" height="980" rx="0" ry="0" x="0" y="0" fill="#fff" /></mask><g mask="url(#lorelei-hotroute-1a0d__viewboxMask)"><g transform="translate(10 -60)"><path fill-rule="evenodd" clip-rule="evenodd" d="M427 120c21 3 42 9 58 23 11 8 23 20 27 34 1-10 0-20-2-30-2-8-7-13-13-19 1-3 5-2 7-1 12 6 20 18 24 30 3 10 3 20 0 29-3 13-11 22-21 31a391 391 0 0 1 212 79l25 25c10 14 18 29 20 46 2 18 2 37-4 55-2 7-5 14-10 19l-3-1c7 22 10 45 13 67a1185 1185 0 0 1 6 77c-1 22-4 45-10 67-4 12-10 24-17 35l-5 4-1-7-6-31c-4 9-10 18-17 26-5 6-11 10-18 14l-3 3-9 6c-16 9-33 16-50 21a569 569 0 0 1-207 15v-1h-8c-19-3-38-8-55-15l-5-2-6-3c-6 6-11 12-15 19s-6 16-7 24c0 9 2 18 5 26v1l1 1c0 1 1 3-1 3-5-2-10-8-13-13-6-8-9-19-8-29 2-16 10-30 22-41l-11-7v1l-1 14-2 3-1 1-14-13c-18-19-33-41-43-65l-6-10-3-4a296 296 0 0 1-11-298c-8-11-11-25-11-39a115 115 0 0 1 63-106c6-4 14-6 21-7l1-1h4l4-7 2-4c11-17 28-31 47-39 17-7 36-8 55-6Zm-6 15c21 2 42 9 58 23 8 6 14 14 18 23a89 89 0 0 0-36-25c-17-7-36-11-54-12a118 118 0 0 0-51 6c19-12 42-17 65-15Zm316 243-1-1c0 8 0 16-2 24l2 6v2c5 10 9 20 11 31 2-3 1-6 1-10v-3a171 171 0 0 0-11-49Z" fill="#000000"/><path d="M495 231a231 231 0 0 1 219 204c1 10 2 21 0 30-1 4-1 7-4 8-3-10-3-19-4-29a220 220 0 0 0-239-205c-42 4-83 19-117 44l-17 13a221 221 0 0 0-78 164c0 23 7 43 15 64h17c3 1 4 4 2 6l-6 2c-15 1-31 7-42 17-8 9-14 19-16 31-3 15 0 32 8 45 9 15 24 27 40 33 14 5 29 7 43 5 4-1 8-2 11 0v3c-5 5-11 6-18 7-16 3-33-1-47-8a86 86 0 0 1-47-58c-4-18-1-37 9-53 8-12 20-21 34-26-7-14-10-28-12-43-2-18-2-35 0-53 1-13 4-25 8-38a227 227 0 0 1 99-122c41-28 92-43 142-41Z" fill="#000"/><path d="M535 244a220 220 0 0 1 171 200c1 10 1 19 4 29l-2 18v22c-3 4-4 9-4 14-2 8-2 15-2 23v65c0 21-3 42-11 61-4 13-10 24-18 35-10 12-21 22-34 31-11 9-24 17-37 24l-22 14-12 8 9-2c-3 11-3 24-4 36 0 8 1 16 7 22a235 235 0 0 0 81 45c6 7 11 16 13 25 1 9 0 18-4 27-6 10-14 18-23 24-13 10-28 17-43 22a417 417 0 0 1-217 11c-16-3-33-9-48-17-10-5-21-12-28-21-6-6-10-14-11-22-2-10 0-21 5-30 21-13 39-32 49-54 5-11 7-22 8-34 1-16 0-32-1-47-2-20-3-41-8-61 11 12 23 24 37 32 17 11 36 20 55 26 20 7 41 13 63 18l25 3c3 0 6 0 8-2 2-1 1-2 2-3l-17-2c-29-7-58-16-87-27-18-7-36-15-53-27-18-13-33-30-47-47l-11-16-1-1v-3c-3-2-7-1-11 0-14 2-29 0-43-5-16-6-31-18-40-33-8-13-11-30-8-45 2-12 8-22 16-31 11-10 27-16 42-17l6-2c2-2 1-5-2-6h-17c-8-21-15-41-15-64-1-14 2-27 5-41a221 221 0 0 1 73-123l17-13a230 230 0 0 1 185-39Z" fill="#ffffff"/><path d="M708 513c3 3 2 7 3 12v29c0 26 2 54 0 80-3 31-14 63-36 86-25 28-57 51-93 64l2 7v35c1 6 4 10 8 14l26 19 32 20 24 12c2 0 3 1 5 3l-19-5c-19-6-37-14-54-25-9-5-19-12-26-20-6-6-7-14-7-22 1-12 1-25 4-36l-9 2 12-8 22-14c13-7 26-15 37-24 13-9 24-19 34-31a178 178 0 0 0 29-96v-65c0-8 0-15 2-23 0-5 1-10 4-14ZM278 574c5 5 4 14 0 19l-3 7c1 3 5 5 7 6 6 3 12 7 19 9 0 4-3 5-7 5-6-1-13-3-18-6-7-3-13-8-13-16 0-6 5-9 6-14 2-4 0-7-1-11 4-1 7-2 10 1ZM328 667l11 16c14 17 29 34 47 47 17 12 35 20 53 27a714 714 0 0 0 104 29c-1 1 0 2-2 3-2 2-5 2-8 2l-25-3a478 478 0 0 1-118-44c-14-8-26-20-37-32 5 20 6 41 8 61 1 15 2 31 1 47-1 12-3 23-8 34-10 22-28 41-49 54l-14 8c2-4 6-6 9-9 13-11 24-25 34-39 6-10 12-21 14-33 4-19 3-39 3-58l-3-59 2-10c-10-11-19-26-22-41Z" fill="#000"/><path d="M490 492c7 3 13 8 19 13 6 6 12 13 13 22 0 2 1 5-2 6l-4-8c2 9-3 20-12 24-6 3-13 4-19 3-9-1-17-6-23-13-4-6-6-14-4-21 1-8 5-15 11-19a90 90 0 0 0-55 14c-5 3-10 7-13 12-2 3-5 5-9 5-6 0-10-7-8-12l8-11c12-10 26-18 41-22 19-6 40-2 57 7ZM681 484c6 2 14 4 17 9 4 6 1 13-6 14 2 8 2 17-3 24-7 9-23 11-31 3-5-6-9-14-8-22 1-4 3-7 6-11-12 3-21 11-28 20-4 5-6 10-9 16l-5 1 1-6a90 90 0 0 1 39-43c8-5 17-7 27-5Z" fill="#000000"/><path d="m688 421 1 2-13 14c-7 6-14 10-22 14l-26 19-13 6-9 1-10 20-1 1-1-1c-2-5 0-13 1-19 2-6 2-12 8-16 3-3 7-3 10-5l31-20c8-6 16-11 25-13l19-3ZM371 430c9 0 19 0 28 2 9 1 17 4 26 6 5 2 10 1 15 2 8 0 15-1 23 2 8 2 16 3 23 6 12 3 24 5 35 11 0-2 0-4 2-6 2-1 5 0 6 2 5 7 8 17 11 25 1 4-2 9-6 9-5 1-8-4-12-6-5-2-7-7-12-9l-30-9-19-5-15-3-15-4-24-9-30-9-6-5Z" fill="#000000"/><path d="M594 572a37 37 0 0 1 19 29c0 9-5 18-13 22l-17 7c-4 1-6 2-9 0-2-3-1-4 1-6 6-5 15-7 21-12 3-2 5-5 5-9 0-10-5-17-7-26v-5Z" fill="#000000"/><path fill-rule="evenodd" clip-rule="evenodd" d="M661 646c3 3 6 8 7 12 3 5 4 11 3 17l-4-5-1-2-10-15-1-1v-1c-1-2-2-3-1-5 2-2 4-1 7 0Zm-30 25a40 40 0 0 1 29 13c3 4 7 7 8 10 2 4 2 8-2 10-5 4-13 5-20 5a5207 5207 0 0 1-42 1l-28 3-18 1-10 2-19 1c1-3 2-4 5-5l5-6 4-3c7-7 17-12 26-17l2-1c10-5 21-9 31-11 10-3 19-4 29-3Zm-6 29c-1-7 1-14 4-20-11-1-22 0-32 3l-1 11-1 7 30-1Zm11-19 1 1 4 1c6 2 11 7 15 12l3 3c-6 2-12 2-19 2h-10c4-6 6-12 6-19Zm-48 20c-1-5 0-10 1-15a254 254 0 0 0-43 21c10-3 21-4 31-5l11-1Z" fill="#000000"/><path d="M492 216c35 0 70 7 103 17 23 6 45 14 66 24 23 12 45 25 63 44 15 13 27 28 35 46 3 8 5 17 6 26 1 13 0 26-2 39-2 10-6 22-13 30l-2-6c0-20-5-40-12-59 1 19-3 40-15 55-4 4-8 5-12 7s-9 2-13 2c-7-1-15-4-22-7-2-2-5-3-6-6-4-13-5-27-9-40l-6-17c-2 10-4 19-8 28-3 11-8 21-15 30l-8 7-3-14-4-17c-5-21-14-42-26-61v29c-2 16-3 31-10 45-3 7-4 14-10 18-8 4-18 5-27 5-13 0-28 2-41-1-6-2-8-7-11-12l-14-31-11-20c-2 22-2 43-1 64-1 2 0 4-2 5-1 2-3 1-5 0-9-4-16-11-23-18-9-12-19-24-25-37l2 17c3 12 7 24 12 35l2 8-5-2c-7-5-12-12-17-19-7-12-11-27-12-41-5 19-7 39-8 59l-2 10c-1 3-3 4-6 5l-33 5h-11a670 670 0 0 0 13 152l15 61c1 3 0 5-2 7-15-8-26-23-36-38v63l-3 6a245 245 0 0 1-64-94l-6-16a397 397 0 0 1-27-151c1-40 9-80 26-116a217 217 0 0 1 76-91l31-17c11-4 22-9 34-10 10-1 21-3 31 0 4 1 8-1 12-2 20-4 41-6 61-6Z" fill="#000000"/></g><g transform="translate(10 -60)"></g></g>
  </svg>
</svg>
